<svg id="Capa_1" enable-background="new 0 0 512 512" height="512" viewBox="0 0 512 512" width="512" xmlns="http://www.w3.org/2000/svg"><g><g><g><g><g><g><g><g><g><g><g><g><g><g><g><g><g><g><g><g><path d="m271.77 281.683c-5.82-.755-10.177-5.706-10.177-11.574v-53.383h-81.564v53.383c0 5.868-4.357 10.819-10.177 11.574l-35.253 46.7 86.212 35.066 90.396-32.35z" fill="#ffddce"/><path d="m298.11 142.247h-4.934v-5.794-13.849c0-19.554-8.028-38.502-22.846-51.261-11.617-10.003-27.948-18.734-49.519-18.975-21.572.241-37.902 8.972-49.519 18.975-14.818 12.759-22.846 31.707-22.846 51.261v13.849 5.794h-4.934c-7.233 0-13.097 5.864-13.097 13.097v14.514c0 7.233 5.864 13.097 13.097 13.097 2.708 0 4.976 2.062 5.215 4.759 1.53 17.273 9.343 33.585 22.565 44.97 11.618 10.003 27.948 18.734 49.519 18.975 21.572-.241 37.902-8.972 49.519-18.975 13.221-11.384 21.034-27.696 22.565-44.97.239-2.697 2.507-4.759 5.215-4.759 7.233 0 13.097-5.864 13.097-13.097v-14.514c0-7.233-5.864-13.097-13.097-13.097z" fill="#ffddce"/><path d="m376.728 473.104v-123.633c0-22.428-13.2-42.754-33.689-51.877-18.652-8.305-53.911-13.658-71.269-15.911l-50.959 76.937-50.959-76.937c-17.358 2.253-52.617 7.606-71.269 15.911-20.488 9.122-33.689 29.449-33.689 51.877v123.633z" fill="#f1f1f4"/><g><path d="m343.039 297.594c-18.652-8.304-53.911-13.658-71.269-15.911l-21.31 32.173c10.902 2.408 21.399 5.326 29.079 8.746 20.488 9.122 33.689 29.449 33.689 51.877v98.625h63.5v-123.633c0-22.428-13.201-42.755-33.689-51.877z" fill="#dfeaef"/></g></g></g></g></g></g></g><path d="m248.993 48.058h-56.883c-10.384 0-19.209 6.657-22.45 15.935-1.215 3.478-4.534 5.777-8.218 5.777-13.238 0-23.97 10.732-23.97 23.97v49.982s13.623-.25 20.736 6.767c1.495 1.475 4.021.433 4.021-1.667v-32.857c0-11.408 9.248-20.657 20.657-20.657h.248c3.418 0 6.798.527 10.029 1.545 6.148 1.936 12.514 3.097 18.959 3.097h17.376c6.446 0 12.811-1.161 18.959-3.097 3.231-1.018 6.611-1.545 10.029-1.545h.248c11.408 0 20.657 9.248 20.657 20.657v30.477c0 .031 0 .061.001.092.044 3.492 3.982 5.541 6.961 3.718 5.133-3.141 10.809-5.292 16.735-6.342l1.061-.188v-40.508c0-30.462-24.694-55.156-55.156-55.156z" fill="#8e99a3"/><g><path d="m298.11 142.247h-4.934v-5.794-13.849c0-19.554-8.028-38.502-22.846-51.261-6.301-5.426-14.001-10.463-23.158-13.989l-.016 125.601c-.408 19.008-8.396 37.304-22.826 49.729-7.057 6.076-15.865 11.67-26.519 15.19 6.884 2.274 14.532 3.69 23 3.785 21.572-.241 37.902-8.972 49.519-18.975 13.221-11.384 21.034-27.697 22.565-44.97.239-2.697 2.507-4.759 5.215-4.759 7.233 0 13.097-5.864 13.097-13.097v-14.514c0-7.233-5.864-13.097-13.097-13.097z" fill="#ffcbbe"/></g><g><path d="m248.993 48.058h-1.82l-.006 49.179c.43-.127.862-.249 1.291-.384 3.231-1.018 6.611-1.545 10.029-1.545h.248c11.408 0 20.657 9.248 20.657 20.656v30.477c0 .031 0 .061.001.092.044 3.492 3.982 5.541 6.961 3.718 5.133-3.141 10.81-5.292 16.735-6.342l1.061-.188v-40.509c-.001-30.46-24.695-55.154-55.157-55.154z" fill="#7f8993"/></g></g></g></g></g></g></g></g><g fill="#d0e2e7"><path d="m148.994 324.754c.741 3.934 4.496 6.549 8.442 5.879l7.408-1.257c3.725-.632 7.321 1.666 8.312 5.312l3.636 13.379c.772 2.842 3.168 4.947 6.086 5.347l37.932 5.204-45.051-69.587c-2.539-3.158-2.214-7.713.701-10.527 2.211-2.134 3.567-5.123 3.567-8.398v-16.196l-11.527 7.369c-8.673 5.545-16.447 12.383-23.052 20.279-2.371 2.834-3.348 6.58-2.665 10.21z"/><path d="m298.837 291.771c.684-3.631-.294-7.377-2.665-10.21-6.605-7.896-14.379-14.734-23.052-20.279l-11.527-7.369v16.196c0 3.275 1.357 6.264 3.567 8.398 2.916 2.814 3.24 7.368.701 10.527l-45.051 69.587 37.932-5.204c2.918-.4 5.314-2.505 6.086-5.347l3.636-13.379c.991-3.646 4.587-5.944 8.312-5.312l7.408 1.257c3.946.67 7.702-1.946 8.442-5.879z"/></g></g><path d="m261.78 196.695h-81.938c-4.517 0-8.18 3.662-8.18 8.18v30.607c0 3.21 1.489 6.247 4.056 8.175 11.221 8.43 26.131 15.203 45.093 15.415 18.963-.212 33.872-6.985 45.093-15.415 2.566-1.928 4.055-4.965 4.055-8.175v-30.607c0-4.518-3.662-8.18-8.179-8.18z" fill="#b1e4f9"/><path d="m261.78 196.695h-16.273c-3.057 13.864-10.275 26.603-21.177 35.99-9.37 8.068-21.81 15.301-37.588 17.927 9.445 4.921 20.753 8.311 34.068 8.46 18.963-.212 33.872-6.985 45.093-15.415 2.566-1.928 4.055-4.965 4.055-8.175v-30.607c.001-4.518-3.661-8.18-8.178-8.18z" fill="#90d8f9"/></g></g><g><g><g><g><g><g><g><g><g><path d="m146.87 469.956-43.575-89.224c-.562-1.151-.854-2.415-.854-3.696v-30.587h-41.354v30.587c0 1.281-.292 2.545-.854 3.696l-43.575 89.224z" fill="#f2f9ff"/></g><path d="m105.203 359.794h-46.878c-3.683 0-6.668-2.985-6.668-6.668v-11.594c0-3.683 2.985-6.668 6.668-6.668h46.878c3.683 0 6.668 2.985 6.668 6.668v11.594c0 3.683-2.986 6.668-6.668 6.668z" fill="#d1ecf9"/></g></g></g><path d="m146.87 469.956-27.991-57.315c-6.174.013-6.056 3.059-12.257 3.059-6.215 0-6.215-3.067-12.43-3.067-6.214 0-6.214 3.067-12.429 3.067s-6.215-3.067-12.429-3.067-6.214 3.067-12.429 3.067c-6.199 0-6.083-3.051-12.251-3.066l-27.995 57.323h130.211z" fill="#df75a5"/></g></g></g></g></g><path d="m493.527 465.316h-475.054c-6.06 0-10.973 4.913-10.973 10.973v17.156c0 6.06 4.913 10.973 10.973 10.973h475.055c6.06 0 10.973-4.913 10.973-10.973v-17.156c-.001-6.061-4.914-10.973-10.974-10.973z" fill="#d6a889"/><path d="m493.527 465.315h-51.861v28.129c0 6.06-4.913 10.973-10.973 10.973h62.833c6.06 0 10.973-4.913 10.973-10.973v-17.156c.001-6.06-4.912-10.973-10.972-10.973z" fill="#cc9675"/></g><path d="m331.787 419.949h-53.133c-2.965 0-5.369-2.404-5.369-5.369v-24.358c0-2.965 2.404-5.369 5.369-5.369h53.133c2.965 0 5.369 2.404 5.369 5.369v24.358c0 2.965-2.404 5.369-5.369 5.369z" fill="#d1ecf9"/><path d="m337.156 414.58v-24.358c0-2.965-2.404-5.369-5.369-5.369h-18.56v35.095h18.56c2.966.001 5.369-2.403 5.369-5.368z" fill="#b1e4f9"/></g><path d="m482.822 7.583h-122.128c-11.972 0-21.677 9.705-21.677 21.677v77.798c0 11.972 9.705 21.677 21.677 21.677 5 0 9.054 4.054 9.054 9.054v32.698c0 5.694 7.208 8.162 10.698 3.663l32.514-41.911c1.715-2.211 4.356-3.504 7.154-3.504h62.71c11.972 0 21.677-9.705 21.677-21.677v-77.798c-.001-11.972-9.706-21.677-21.679-21.677z" fill="#ffd064"/><path d="m482.822 7.583h-41.572v99.475c0 11.972-9.705 21.677-21.677 21.677h-58.879c5 0 9.054 4.053 9.054 9.054v32.698c0 5.694 7.208 8.162 10.698 3.663l32.514-41.911c1.715-2.211 4.356-3.504 7.154-3.504h62.71c11.972 0 21.677-9.705 21.677-21.677v-77.798c-.001-11.972-9.706-21.677-21.679-21.677z" fill="#ffc250"/></g><g><path d="m465.706 40.559h-87.895c-4.142 0-7.5 3.357-7.5 7.5s3.358 7.5 7.5 7.5h87.895c4.142 0 7.5-3.357 7.5-7.5s-3.358-7.5-7.5-7.5z"/><path d="m465.706 75.559h-87.895c-4.142 0-7.5 3.357-7.5 7.5s3.358 7.5 7.5 7.5h87.895c4.142 0 7.5-3.357 7.5-7.5s-3.358-7.5-7.5-7.5z"/><path d="m504.5 58.247c4.142 0 7.5-3.357 7.5-7.5v-21.486c0-16.089-13.089-29.178-29.178-29.178h-122.128c-16.088 0-29.177 13.089-29.177 29.177v77.799c0 16.088 13.089 29.177 29.177 29.177.857 0 1.554.697 1.554 1.554v32.698c0 5.85 3.576 10.854 9.11 12.75 5.558 1.9 11.439.118 15.013-4.489l32.514-41.911c.292-.377.751-.602 1.228-.602h62.71c16.088 0 29.177-13.089 29.177-29.178v-21.248c0-4.143-3.358-7.5-7.5-7.5s-7.5 3.357-7.5 7.5v21.248c0 7.817-6.36 14.178-14.177 14.178h-62.71c-5.153 0-9.919 2.335-13.079 6.406l-29.786 38.396v-28.248c0-9.128-7.426-16.554-16.554-16.554-7.817 0-14.177-6.359-14.177-14.177v-77.799c0-7.817 6.36-14.177 14.177-14.177h122.128c7.817 0 14.178 6.36 14.178 14.178v21.486c0 4.143 3.358 7.5 7.5 7.5z"/><path d="m493.527 457.815h-109.3v-37.866c0-4.143-3.358-7.5-7.5-7.5s-7.5 3.357-7.5 7.5v37.866h-140.916v-92.654l31.452-4.316c5.91-.812 10.739-5.055 12.304-10.812l3.598-13.239 7.265 1.233c7.928 1.339 15.581-3.987 17.068-11.887l5.896-31.322c14.913 3 26.604 6.291 34.094 9.626 17.762 7.909 29.239 25.583 29.239 45.025v35.383c0 4.143 3.358 7.5 7.5 7.5s7.5-3.357 7.5-7.5v-35.383c0-25.36-14.97-48.412-38.138-58.729-9.496-4.228-23.777-8.144-42.486-11.652-8.87-14.386-32.876-28.087-33.926-28.91 5.016-3.691 7.484-8.466 7.755-13.81 12.691-11.882 20.693-28.051 22.733-46.017 10.396-1.035 18.541-9.832 18.541-20.495v-14.515c0-6.044-2.625-11.646-7.058-15.503v-36.627c0-34.548-28.107-62.655-62.656-62.655h-56.882c-13.284 0-25.151 8.424-29.53 20.962-.154.441-.622.75-1.138.75-17.353 0-31.47 14.117-31.47 31.47v46.101c-4.433 3.857-7.058 9.458-7.058 15.503v14.515c0 10.663 8.146 19.46 18.541 20.495 2.04 17.974 10.047 34.146 22.733 46.017.269 5.32 2.72 10.106 7.755 13.81-.515.405-25.27 14.865-33.927 28.91-18.708 3.508-32.989 7.424-42.485 11.652-16.044 7.144-28.243 20.316-34.194 36.622h-3.013c-7.812 0-14.168 6.355-14.168 14.167v11.595c0 6.149 3.945 11.38 9.43 13.336v10.573c0 .142-.032.278-.093.405l-39.538 80.957c-8.005 2.024-13.955 9.267-13.955 17.892v17.156c0 10.186 8.287 18.473 18.473 18.473h475.055c10.186 0 18.473-8.287 18.473-18.473v-17.156c-.001-10.185-8.288-18.473-18.474-18.473zm-231.068-222.334c0 .865-.396 1.68-1.06 2.179-24.617 18.493-56.57 18.485-81.176 0-.664-.499-1.06-1.313-1.06-2.179v-30.607c0-.375.305-.68.679-.68h81.938c.375 0 .679.305.679.68zm-80.791 48.422c3.724-3.593 5.86-8.621 5.86-13.794v-10.775c20.655 9.319 44.466 9.97 66.564 0v10.775c0 5.172 2.136 10.2 5.859 13.793.134.13.162.312.064.432-.459.573 2.038-3.195-39.206 60.484-41.238-63.67-38.746-59.912-39.205-60.484-.096-.12-.068-.303.064-.431zm108.751 2.47c.933 1.115 1.315 2.587 1.047 4.011l-6.18 32.829-7.252-1.229c-7.575-1.287-14.792 3.33-16.806 10.738l-3.609 13.277-21.624 2.967 35.987-55.585c4.69-6.186 4.03-14.824-1.614-20.271-1.824-1.761-1.134-4.132-1.275-5.5 8.032 5.136 15.207 11.449 21.326 18.763zm-145.446-192.633c0-9.081 7.388-16.47 16.47-16.47 6.894 0 13.042-4.342 15.299-10.805 2.279-6.523 8.455-10.907 15.369-10.907h56.883c26.277 0 47.656 21.378 47.656 47.655v34.471c-3.366.93-6.626 2.171-9.757 3.716v-25.436c0-15.525-12.631-28.156-28.157-28.156h-.248c-11.606 0-15.557 4.642-28.988 4.642h-17.375c-12.807 0-17.864-4.642-28.988-4.642h-.248c-15.526 0-28.157 12.631-28.157 28.156v23.533c-3.385-1.416-6.827-2.224-9.757-2.683v-43.074zm11.224 93.314c-.585-6.612-6.039-11.599-12.686-11.599-3.086 0-5.597-2.511-5.597-5.597v-14.515c0-1.557.645-3.007 1.745-4.048 3.735.277 10.094 1.388 13.283 4.534 6.206 6.121 16.788 1.765 16.788-7.007v-32.857c0-7.255 5.902-13.156 13.157-13.156h.248c8.221 0 13.768 4.642 28.988 4.642h17.375c15.108 0 20.802-4.642 28.988-4.642h.248c7.255 0 13.157 5.901 13.157 13.156.001 41.027-.038 28.069.001 30.665.12 9.391 10.512 14.832 18.375 10.021 3.758-2.3 7.817-3.953 12.087-4.936.856.996 1.353 2.27 1.353 3.629v14.515c0 3.086-2.511 5.597-5.597 5.597-6.646 0-12.1 4.986-12.686 11.598-.816 9.211-3.561 17.847-7.965 25.42v-7.599c0-8.646-7.034-15.68-15.679-15.68h-81.938c-8.646 0-15.679 7.034-15.679 15.68v7.608c-4.401-7.569-7.149-16.211-7.966-25.429zm16.332 80.556c-.14 1.358.548 3.739-1.277 5.5-5.642 5.447-6.301 14.086-1.612 20.271l35.987 55.585-21.624-2.967-3.609-13.278c-2.014-7.408-9.241-12.016-16.804-10.738l-7.254 1.23-6.18-32.829c-.267-1.417.109-2.891 1.046-4.011 6.119-7.314 13.294-13.627 21.327-18.763zm-70.895 36.835c7.489-3.335 19.181-6.626 34.093-9.626l5.896 31.322c1.487 7.899 9.146 13.227 17.067 11.887l7.266-1.233 3.598 13.239c1.564 5.757 6.394 10 12.304 10.812l31.452 4.316v92.654h-64.024l-39.254-80.376c-.062-.127-.093-.263-.093-.404v-10.573c5.486-1.955 9.43-7.187 9.43-13.336v-11.595c0-7.812-6.355-14.167-14.167-14.167h-27.564c5.053-10.109 13.437-18.218 23.996-22.92zm-33.047 72.59v-9.741h26.353v9.741c0 2.408.559 4.825 1.615 6.987l11.706 23.969c-.447.157-.865.208-1.64.208-3.227 0-4.857-3.068-12.431-3.068-7.596 0-9.186 3.068-12.429 3.068-3.225 0-4.868-3.068-12.429-3.068-8.583 0-10.181 4.234-14.066 2.859l11.706-23.969c1.057-2.163 1.615-4.579 1.615-6.986zm-19.913 44.454c10.244 4.687 17.488-1.358 20.659-1.358 3.225 0 4.868 3.068 12.429 3.068 7.49 0 9.233-3.068 12.429-3.068 3.227 0 4.857 3.068 12.431 3.068 3.878 0 6.421-.881 8.233-1.709l17.74 36.325h-101.662zm10.483-79.125h45.214v9.93h-45.214zm437.843 151.08c0 1.915-1.558 3.473-3.473 3.473h-475.054c-1.915 0-3.473-1.558-3.473-3.473v-17.156c0-1.915 1.558-3.473 3.473-3.473h.411c.012 0 .023.002.035.002.009 0 .019-.002.028-.002h474.581c1.915 0 3.473 1.558 3.473 3.473v17.156z"/><path d="m278.654 377.354c-7.096 0-12.869 5.773-12.869 12.869v24.357c0 7.096 5.773 12.869 12.869 12.869h53.133c7.096 0 12.869-5.773 12.869-12.869v-24.357c0-7.096-5.773-12.869-12.869-12.869zm51.002 35.095h-48.871v-20.096h48.871z"/></g></g></svg>